<?xml version="1.0" encoding="utf-8"?>
<!-- Generator: Adobe Illustrator 18.1.0, SVG Export Plug-In . SVG Version: 6.00 Build 0)  -->
<!DOCTYPE svg PUBLIC "-//W3C//DTD SVG 1.1//EN" "http://www.w3.org/Graphics/SVG/1.1/DTD/svg11.dtd">
<svg version="1.1" id="Layer_1" xmlns="http://www.w3.org/2000/svg" xmlns:xlink="http://www.w3.org/1999/xlink" x="0px" y="0px"
	 viewBox="-372 253.1 95.4 90.2" enable-background="new -372 253.1 95.4 90.2" xml:space="preserve">
<g>
	<path d="M-324,309.9c6,0,10.9-4.9,10.9-10.9c0-4.1-2.2-7.6-5.5-9.5c-1.6-0.9-3.4-1.4-5.4-1.4c-2,0-3.8,0.5-5.4,1.4
		c-3.3,1.9-5.5,5.4-5.5,9.5C-334.9,305-330,309.9-324,309.9z M-300.7,288c0.2,0.5,0.5,1,0.7,1.5c1.2,2.9,1.8,6.1,1.8,9.5
		c0,14.2-11.5,25.8-25.8,25.8c-14.2,0-25.8-11.5-25.8-25.8c0-3.4,0.6-6.6,1.8-9.5c0.2-0.5,0.4-1,0.6-1.5c0,0,0,0,0,0h-22.2v51.2
		c0,2.1,1.7,3.8,3.8,3.8h82.9c2.1,0,3.8-1.7,3.8-3.8V288L-300.7,288L-300.7,288z"/>
	<path d="M-282.9,253h-82.9c-2.1,0-3.8,1.7-3.8,3.8v24.1h27.3c4.7-4.7,11.1-7.6,18.3-7.6c7.1,0,13.6,2.9,18.2,7.6h26.8v-24.1
		C-279,254.7-280.7,253-282.9,253z M-287.2,268.6c0,2.2-1.7,3.9-3.9,3.9h-4.6c-2.1,0-3.9-1.7-3.9-3.9V264c0-2.2,1.7-3.9,3.9-3.9h4.6
		c2.1,0,3.9,1.7,3.9,3.9V268.6z"/>
</g>
</svg>
