<?xml version="1.0" encoding="utf-8"?>
<!-- Generator: Adobe Illustrator 18.1.0, SVG Export Plug-In . SVG Version: 6.00 Build 0)  -->
<!DOCTYPE svg PUBLIC "-//W3C//DTD SVG 1.1//EN" "http://www.w3.org/Graphics/SVG/1.1/DTD/svg11.dtd">
<svg version="1.1" id="Layer_1" xmlns="http://www.w3.org/2000/svg" xmlns:xlink="http://www.w3.org/1999/xlink" x="0px" y="0px"
	 viewBox="-370 248.3 100 100" enable-background="new -370 248.3 100 100" xml:space="preserve">
<path d="M-281.1,248.3h-76.4c-6.9,0-12.5,5.6-12.5,12.5V271h101.4v-10.2C-268.6,253.9-274.2,248.3-281.1,248.3z M-291,261.4h-3.5
	v-3.5h3.5V261.4z M-283.7,261.4h-3.6v-3.5h3.6V261.4z M-276.8,261.4h-3.6v-3.5h3.6V261.4z"/>
<path d="M-370,272.7v64.5c0,6.9,5.6,12.5,12.5,12.5h76.4c6.9,0,12.5-5.6,12.5-12.5v-64.5H-370z M-352.9,329.5h-6.1v-6h6.1V329.5z
	 M-352.9,313.8h-6.1v-6h6.1V313.8z M-352.9,296.9h-6.1v-6h6.1V296.9z M-279.4,329.5h-64v-6h64V329.5z M-279.4,313.8h-64v-6h64V313.8
	z M-279.4,296.9h-64v-6h64V296.9z"/>
</svg>
